<svg viewBox="0 0 200 200" xmlns="http://www.w3.org/2000/svg">
  <defs>
    <linearGradient id="grad1" x1="0%" y1="0%" x2="100%" y2="100%">
      <stop offset="0%" style="stop-color:#6366f1;stop-opacity:1" />
      <stop offset="50%" style="stop-color:#8b5cf6;stop-opacity:1" />
      <stop offset="100%" style="stop-color:#ec4899;stop-opacity:1" />
    </linearGradient>
  </defs>
  
  <circle cx="100" cy="100" r="90" fill="url(#grad1)" opacity="0.1"/>
  <circle cx="100" cy="100" r="90" fill="none" stroke="url(#grad1)" stroke-width="3"/>
  
  <g transform="translate(100, 100)">
    <path d="M 0,-25 L 21.65,-12.5 L 21.65,12.5 L 0,25 L -21.65,12.5 L -21.65,-12.5 Z" 
          fill="none" stroke="#8b5cf6" stroke-width="2.5"/>
    <circle cx="0" cy="-25" r="4" fill="#ec4899"/>
    <circle cx="21.65" cy="-12.5" r="4" fill="#ec4899"/>
    <circle cx="21.65" cy="12.5" r="4" fill="#ec4899"/>
    <circle cx="0" cy="25" r="4" fill="#ec4899"/>
    <circle cx="-21.65" cy="12.5" r="4" fill="#ec4899"/>
    <circle cx="-21.65" cy="-12.5" r="4" fill="#ec4899"/>
    <circle cx="0" cy="0" r="8" fill="none" stroke="#6366f1" stroke-width="2"/>
  </g>
  
  <g stroke="#6366f1" stroke-width="2" fill="none" opacity="0.8">
    <path d="M 30,40 L 50,40 L 50,60"/>
    <circle cx="30" cy="40" r="3" fill="#6366f1"/>
    <circle cx="50" cy="60" r="3" fill="#6366f1"/>
  </g>
  
  <g stroke="#8b5cf6" stroke-width="2" fill="none" opacity="0.8">
    <path d="M 170,40 L 150,40 L 150,60"/>
    <circle cx="170" cy="40" r="3" fill="#8b5cf6"/>
    <circle cx="150" cy="60" r="3" fill="#8b5cf6"/>
  </g>
  
  <rect x="65" y="65" width="70" height="70" fill="none" stroke="url(#grad1)" stroke-width="2" rx="5"/>
  
  <g stroke="url(#grad1)" stroke-width="1.5">
    <line x1="80" y1="65" x2="80" y2="55"/>
    <line x1="100" y1="65" x2="100" y2="55"/>
    <line x1="120" y1="65" x2="120" y2="55"/>
    <line x1="80" y1="135" x2="80" y2="145"/>
    <line x1="100" y1="135" x2="100" y2="145"/>
    <line x1="120" y1="135" x2="120" y2="145"/>
  </g>
</svg>
